<svg width="602" height="246" viewBox="0 0 602 246" fill="none" xmlns="http://www.w3.org/2000/svg">
<g filter="url(#filter0_dd_20_13)">
<ellipse cx="112.806" cy="124.837" rx="108.793" ry="112.862" transform="rotate(-0.516062 112.806 124.837)" fill="#1C4C96"/>
<path d="M53.8395 167.8H72.4395C76.7595 167.8 80.4395 167.16 83.4795 165.88C86.5995 164.6 89.1595 162.6 91.1595 159.88C93.3995 157.08 95.0395 153.4 96.0795 148.84C97.1995 144.28 97.7595 138.84 97.7595 132.52C97.7595 120.04 95.5595 110.76 91.1595 104.68C89.0795 101.64 86.3995 99.4 83.1195 97.96C79.8395 96.52 75.8795 95.8 71.2395 95.8H53.8395V167.8ZM31.7595 88.6H72.0795C83.9995 88.6 93.2795 91.96 99.9195 98.68C103.68 102.52 106.56 107.24 108.56 112.84C110.56 118.44 111.56 124.44 111.56 130.84C111.56 137.56 110.48 143.88 108.32 149.8C106.24 155.64 103.32 160.56 99.5595 164.56C92.9195 171.52 83.3995 175 70.9995 175H31.7595V169.84L41.8395 167.32V96.28L31.7595 93.76V88.6ZM203.195 130.84C203.195 137.8 202.115 144.36 199.955 150.52C197.875 156.6 194.955 161.68 191.195 165.76C187.915 169.28 183.955 171.92 179.315 173.68C174.755 175.36 169.475 176.2 163.475 176.2C157.395 176.2 152.035 175.36 147.395 173.68C142.755 172 138.875 169.48 135.755 166.12C132.075 162.28 129.235 157.48 127.235 151.72C125.235 145.88 124.235 139.56 124.235 132.76C124.235 125.8 125.275 119.28 127.355 113.2C129.515 107.04 132.475 101.92 136.235 97.84C139.595 94.24 143.475 91.6 147.875 89.92C152.355 88.24 157.635 87.4 163.715 87.4C169.795 87.4 175.115 88.24 179.675 89.92C184.315 91.52 188.275 94.04 191.555 97.48C195.315 101.32 198.195 106.16 200.195 112C202.195 117.84 203.195 124.12 203.195 130.84ZM138.035 130.36C138.035 137 138.595 142.92 139.715 148.12C140.835 153.24 142.435 157.44 144.515 160.72C146.595 163.68 149.195 165.92 152.315 167.44C155.515 168.88 159.435 169.6 164.075 169.6C172.555 169.6 178.795 166.96 182.795 161.68C184.955 158.72 186.595 154.8 187.715 149.92C188.835 144.96 189.395 139.16 189.395 132.52C189.395 125.88 188.835 120.04 187.715 115C186.595 109.96 184.955 105.88 182.795 102.76C180.715 99.72 178.035 97.48 174.755 96.04C171.555 94.6 167.755 93.88 163.355 93.88C159.115 93.88 155.435 94.56 152.315 95.92C149.275 97.2 146.715 99.16 144.635 101.8C140.235 107.64 138.035 117.16 138.035 130.36Z" fill="white"/>
<path d="M294.56 168.8V118.4L285.32 116.12V111.2H302.6L305.24 123.2H305.72C308.12 119.12 311.36 115.92 315.44 113.6C319.52 111.2 323.88 110 328.52 110C335.16 110 340.08 112.16 343.28 116.48C344.88 118.72 346 121.88 346.64 125.96C347.36 129.96 347.72 135.4 347.72 142.28V168.8L356.96 171.08V176H328.04V171.08L336.08 168.8V142.04C336.08 136.84 335.92 132.96 335.6 130.4C335.36 127.84 334.88 125.84 334.16 124.4C333.2 122.48 331.8 121.04 329.96 120.08C328.2 119.04 326.08 118.52 323.6 118.52C318.96 118.52 314.96 120 311.6 122.96C308.32 125.92 306.52 130.52 306.2 136.76V168.8L314.24 171.08V176H285.32V171.08L294.56 168.8ZM364.193 161.96C364.193 155.72 367.113 150.8 372.953 147.2C378.793 143.6 388.473 140.8 401.993 138.8C401.673 134.08 401.233 130.4 400.673 127.76C400.113 125.12 399.393 123 398.513 121.4C397.393 119.32 395.833 117.8 393.833 116.84C391.833 115.8 389.673 115.28 387.353 115.28C385.113 115.28 383.073 115.68 381.233 116.48C379.473 117.28 378.273 118.36 377.633 119.72C378.753 120.52 379.553 121.56 380.033 122.84C380.593 124.12 380.873 125.32 380.873 126.44C380.873 128.44 380.193 130.04 378.833 131.24C377.553 132.36 375.953 132.92 374.033 132.92C372.113 132.92 370.513 132.28 369.233 131C368.033 129.72 367.433 127.92 367.433 125.6C367.433 122.24 368.593 119.4 370.913 117.08C373.233 114.76 376.153 113 379.673 111.8C383.273 110.6 386.873 110 390.473 110C393.753 110 396.753 110.52 399.473 111.56C402.273 112.52 404.633 113.96 406.553 115.88C411.513 120.84 413.993 129.64 413.993 142.28V159.68C413.993 163.6 414.233 166.32 414.713 167.84C415.273 169.36 416.433 170.12 418.193 170.12H423.593V173.72C417.833 176.04 413.353 177.2 410.153 177.2C407.673 177.2 405.993 176.32 405.113 174.56C404.313 172.72 403.913 169.24 403.913 164.12H403.433C400.953 168.2 397.673 171.4 393.593 173.72C389.513 176.04 385.113 177.2 380.393 177.2C375.353 177.2 371.393 175.84 368.513 173.12C365.633 170.4 364.193 166.68 364.193 161.96ZM385.433 170.24C387.673 170.24 389.993 169.68 392.393 168.56C394.873 167.36 396.953 165.72 398.633 163.64C399.913 162.04 400.833 160.16 401.393 158C402.033 155.76 402.353 153.16 402.353 150.2C402.353 148.84 402.313 147.52 402.233 146.24C402.153 144.88 402.033 143.6 401.873 142.4C395.393 143.68 390.313 145.08 386.633 146.6C382.953 148.04 380.353 149.8 378.833 151.88C377.313 153.88 376.553 156.4 376.553 159.44C376.553 162.88 377.313 165.56 378.833 167.48C380.433 169.32 382.633 170.24 385.433 170.24ZM425.166 117.2V112.88L436.806 111.2L438.366 96.08L448.446 94.64V111.2H463.806V117.2H448.446V160.04C448.446 162.76 448.486 164.64 448.566 165.68C448.646 166.64 448.806 167.44 449.046 168.08C449.286 168.64 449.726 169.04 450.366 169.28C451.006 169.44 452.046 169.52 453.486 169.52H461.886V173C458.046 174.44 454.646 175.48 451.686 176.12C448.806 176.84 446.486 177.2 444.726 177.2C441.126 177.2 438.806 175.72 437.766 172.76C437.446 171.8 437.206 170.56 437.046 169.04C436.886 167.52 436.806 165.28 436.806 162.32V117.2H425.166ZM478.544 118.4L469.304 116.12V111.2H490.184V168.8L499.424 171.08V176H469.304V171.08L478.544 168.8V118.4ZM476.864 91.88C476.864 89.56 477.544 87.72 478.904 86.36C480.264 85 482.064 84.32 484.304 84.32C486.624 84.32 488.464 85 489.824 86.36C491.184 87.72 491.864 89.56 491.864 91.88C491.864 94.12 491.184 95.92 489.824 97.28C488.464 98.64 486.624 99.32 484.304 99.32C481.984 99.32 480.144 98.68 478.784 97.4C477.504 96.04 476.864 94.2 476.864 91.88ZM566.687 143C566.687 148.2 565.887 153.16 564.287 157.88C562.767 162.52 560.607 166.36 557.807 169.4C555.407 172.04 552.447 174 548.927 175.28C545.407 176.56 541.407 177.2 536.927 177.2C532.527 177.2 528.607 176.6 525.167 175.4C521.727 174.12 518.807 172.2 516.407 169.64C513.687 166.68 511.567 163.04 510.047 158.72C508.607 154.32 507.887 149.56 507.887 144.44C507.887 139.24 508.647 134.28 510.167 129.56C511.687 124.76 513.887 120.84 516.767 117.8C519.327 115.08 522.287 113.12 525.647 111.92C529.087 110.64 533.007 110 537.407 110C541.807 110 545.767 110.64 549.287 111.92C552.807 113.12 555.767 115 558.167 117.56C560.967 120.52 563.087 124.24 564.527 128.72C565.967 133.12 566.687 137.88 566.687 143ZM520.727 143.12C520.727 148 521.087 152.24 521.807 155.84C522.607 159.36 523.687 162.28 525.047 164.6C526.407 166.6 528.007 168.16 529.847 169.28C531.767 170.4 534.247 170.96 537.287 170.96C542.807 170.96 546.927 169.08 549.647 165.32C551.087 163.24 552.127 160.36 552.767 156.68C553.487 153 553.847 148.76 553.847 143.96C553.847 139.16 553.447 134.96 552.647 131.36C551.927 127.76 550.887 124.84 549.527 122.6C548.247 120.52 546.607 118.96 544.607 117.92C542.687 116.8 540.207 116.24 537.167 116.24C531.567 116.24 527.527 118.08 525.047 121.76C522.167 126.24 520.727 133.36 520.727 143.12Z" fill="white"/>
<path d="M248.3 176.71C243.968 176.71 240.491 175.456 237.869 172.948C235.361 170.44 234.107 167.077 234.107 162.859C234.107 158.413 235.361 154.879 237.869 152.257C240.491 149.635 243.968 148.324 248.3 148.324C252.632 148.324 256.052 149.635 258.56 152.257C261.182 154.879 262.493 158.413 262.493 162.859C262.493 167.077 261.182 170.44 258.56 172.948C256.052 175.456 252.632 176.71 248.3 176.71Z" fill="white"/>
</g>
<defs>
<filter id="filter0_dd_20_13" x="0.0117188" y="11.9755" width="570.676" height="233.723" filterUnits="userSpaceOnUse" color-interpolation-filters="sRGB">
<feFlood flood-opacity="0" result="BackgroundImageFix"/>
<feColorMatrix in="SourceAlpha" type="matrix" values="0 0 0 0 0 0 0 0 0 0 0 0 0 0 0 0 0 0 127 0" result="hardAlpha"/>
<feOffset dy="4"/>
<feGaussianBlur stdDeviation="2"/>
<feComposite in2="hardAlpha" operator="out"/>
<feColorMatrix type="matrix" values="0 0 0 0 0 0 0 0 0 0 0 0 0 0 0 0 0 0 0.25 0"/>
<feBlend mode="normal" in2="BackgroundImageFix" result="effect1_dropShadow_20_13"/>
<feColorMatrix in="SourceAlpha" type="matrix" values="0 0 0 0 0 0 0 0 0 0 0 0 0 0 0 0 0 0 127 0" result="hardAlpha"/>
<feOffset dy="4"/>
<feGaussianBlur stdDeviation="2"/>
<feComposite in2="hardAlpha" operator="out"/>
<feColorMatrix type="matrix" values="0 0 0 0 0 0 0 0 0 0 0 0 0 0 0 0 0 0 0.25 0"/>
<feBlend mode="normal" in2="effect1_dropShadow_20_13" result="effect2_dropShadow_20_13"/>
<feBlend mode="normal" in="SourceGraphic" in2="effect2_dropShadow_20_13" result="shape"/>
</filter>
</defs>
</svg>
